HIERARCHY
ROOT base
{
	OFFSET 0.0 0.0 0.0
	CHANNELS 6 Xposition Yposition Zposition Zrotation Yrotation Xrotation
	JOINT root
	{
		OFFSET 0 0 0
		CHANNELS 6 Xposition Yposition Zposition Zrotation Yrotation Xrotation
		JOINT chest
		{
			OFFSET 0 4.72302 0
			CHANNELS 3 Zrotation Yrotation Xrotation
			JOINT neck
			{
				OFFSET 0 4.47788 0
				CHANNELS 3 Zrotation Yrotation Xrotation
				End Site
				{
					OFFSET 0.0 0.0 0.0
				}
			}
			JOINT right_shoulder
			{
				OFFSET -0.481 4.87 3.6622
				CHANNELS 3 Zrotation Yrotation Xrotation
				JOINT right_elbow
				{
					OFFSET 0 -5.49576 0
					CHANNELS 3 Zrotation Yrotation Xrotation
					JOINT right_wrist
					{
						OFFSET 0 -5.17894 0
						CHANNELS 3 Zrotation Yrotation Xrotation
						End Site
						{
							OFFSET 0.0 0.0 0.0
						}
					}
				}
			}
			JOINT left_shoulder
			{
				OFFSET -0.481 4.87 -3.6622
				CHANNELS 3 Zrotation Yrotation Xrotation
				JOINT left_elbow
				{
					OFFSET 0 -5.49576 0
					CHANNELS 3 Zrotation Yrotation Xrotation
					JOINT left_wrist
					{
						OFFSET 0 -5.17894 0
						CHANNELS 3 Zrotation Yrotation Xrotation
						End Site
						{
							OFFSET 0.0 0.0 0.0
						}
					}
				}
			}
		}
		JOINT right_hip
		{
			OFFSET 0 0 1.69774
			CHANNELS 3 Zrotation Yrotation Xrotation
			JOINT right_knee
			{
				OFFSET 0 -8.43092 0
				CHANNELS 3 Zrotation Yrotation Xrotation
				JOINT right_ankle
				{
					OFFSET 0 -8.1974 0
					CHANNELS 3 Zrotation Yrotation Xrotation
					End Site
					{
						OFFSET 0.0 0.0 0.0
					}
				}
			}
		}
		JOINT left_hip
		{
			OFFSET 0 0 -1.69774
			CHANNELS 3 Zrotation Yrotation Xrotation
			JOINT left_knee
			{
				OFFSET 0 -8.43092 0
				CHANNELS 3 Zrotation Yrotation Xrotation
				JOINT left_ankle
				{
					OFFSET 0 -8.1974 0
					CHANNELS 3 Zrotation Yrotation Xrotation
					End Site
					{
						OFFSET 0.0 0.0 0.0
					}
				}
			}
		}
	}
	JOINT red_arrow
	{
		OFFSET 0 0 0
		CHANNELS 3 Zrotation Yrotation Xrotation
		End Site
		{
			OFFSET 0.0 0.0 0.0
		}
	}
	JOINT blue_arrow
	{
		OFFSET 0 0 0
		CHANNELS 3 Zrotation Yrotation Xrotation
		End Site
		{
			OFFSET 0.0 0.0 0.0
		}
	}
}
MOTION
Frames: 9
Frame Time: 0.0333333333333333
0 18.08466 0 0 0 0 0 0 0 0 -90 0 0 0 0 0 0 0 0 0 -90 0 0 0 0 0 0 0 0 90 0 0 0 0 0 0 0 0 0 0 0 0 0 0 0 0 0 0 0 0 0 0 0 0 0 0 0 0 0 0
0.777712017297745 0 0.0708267917856574 0 0.110362841449938 0 0 16.97392141819 0 -6.11308374119795 2.85752959662738E-16 0.445912255171838 -0.841535517502963 -4.88949241891538 1.11202087411979 0.541137580484599 0.0912561584819594 -0.65379879713906 -13.8812647658995 10.9277819722762 -8.13290046522463 8.91397145653057 0 0 0 0 0 9.01021339203663 -17.4800832630341 20.1352248290834 33.3977467393406 0 0 0 0 0 27.1462780432375 -5.02187934170338 3.04124203882446 -12.9188767820296 0 0 -5.76504813126672 2.40578335952579 -5.050502858583 -8.13871680550631 9.85143045315968 -1.21698045944802 -23.9362920783776 0 0 12.8717804432399 -8.09090186700985 10.6750121475675 0 0 0 0 0 0
1.3936532407999 0 0.190161798894405 0 0.0286675411872216 0 0 16.9744760870934 0 -7.35968200626136 -1.53942907050351 -1.69981906358175 -1.41743326800577 -3.88098656982391 1.85136180509012 0.359417826524733 0.54204111070481 -1.27738447401232 -12.1243566978044 11.8395145984344 -7.93549077872938 8.79382330638817 0 0 0 0 0 8.70328992269016 -17.0941131778461 20.0061698728905 33.2718185416131 0 0 0 0 0 26.9555266423265 -2.86725681723046 6.25157867592034 -13.9313942698761 0 0 -5.84211933014852 0.552604395058723 -4.96195753993003 -4.62971501129009 10.6483576436177 1.51392888747545 -25.7152046024236 0 0 10.6116881856182 -8.69540943477892 10.3267653624088 0 0 0 0 0 0
2.04455870985985 0 0.277700327336788 0 -0.116889874621728 0 0 17.0403460025787 0 -7.82740440400039 -2.739862825963 -3.43494890590991 -1.36420357159817 -3.84619570943856 1.82962425384463 -0.148709435687973 0.278381994494781 -1.76981504918664 -11.1041926937404 13.0690095992086 -7.90890914455804 9.02915149782543 0 0 0 0 0 7.62480170939499 -16.0285911918058 19.1047135405324 32.4663411629826 0 0 0 0 0 25.2655992416247 -2.21383138588531 8.66479005389662 -14.0727808932426 0 0 -3.57250155123119 0.541655348041336 -5.14825099999639 -1.19550217335493 10.5672307537003 4.09807332664183 -30.688026280489 0 0 6.94665837564436 -9.54377045315766 9.28524511932275 0 0 0 0 0 0
2.72830964028835 0 0.335755584388971 0 -0.293469805744523 0 0 17.0953143000603 0 -7.57746572964146 -3.32578697589883 -4.89609151922921 -0.800602315398707 -3.77601078553632 1.5749030661334 -0.373679117614115 -0.198936101347145 -2.26274900574342 -9.74391118220349 14.7013747840726 -7.9022036343302 9.22873389424143 0 0 0 0 0 6.17656285457639 -14.0361785113506 17.6062208243769 31.0006952652192 0 0 0 0 0 22.9827338277934 -1.58033012188191 10.4541265457615 -14.5929945674138 0 0 -0.961591377475147 0.359219356163776 -5.19939694087917 3.02519535591298 9.49122761886796 6.69383554307427 -38.353516850143 0 0 2.57618625779201 -10.2642876444885 7.0662920126442 0 0 0 0 0 0
3.42617735564709 0 0.347424837946892 0 -0.447546371785734 0 0 17.1556310653687 0 -6.83677103866914 -2.90667437036907 -5.84248703534871 -0.100438329421747 -3.6248823510633 0.994288772297816 -0.351717390509907 -0.810735736993996 -2.69796601559605 -7.82533099017048 16.4873415028808 -7.87446486452088 9.50291647054596 0 0 0 0 0 4.58900559000008 -11.3130827476596 16.0489997187906 28.7977441069312 0 0 0 0 0 19.9385940464847 -1.30477636018467 11.2488057894872 -14.8032534032762 0 0 1.61952550349547 0.0343227783057591 -5.09695220502628 7.8948479288584 7.37610955001075 9.04876797137442 -47.6773568597086 0 0 -2.59700291978203 -10.5428652166611 4.55826911986972 0 0 0 0 0 0
4.12526955157518 0 0.303254462778568 0 -0.536164947442356 0 0 17.2250599861145 0 -5.84096142049088 -1.67501623580767 -6.16219588649876 0.522589602670438 -3.24462226421704 0.0761299587695473 -0.245138086037904 -1.47380028316863 -2.93601025908628 -5.4048636688793 18.2995801322668 -7.90460589229864 10.092224338361 0 0 0 0 0 2.88058888104863 -8.40980816783489 14.8933828372605 25.7892660511414 0 0 0 0 0 16.1716877652527 -1.39145237885253 11.0770746571483 -14.2902481400003 0 0 3.90400332528833 -0.364989849614484 -4.83894243877829 13.2551295772098 4.78268584531559 11.0224470983636 -57.2867192671483 0 0 -8.55641058082284 -10.3973448661887 1.74385486490032 0 0 0 0 0 0
4.82545955330133 0 0.190885712951422 0 -0.546930741420387 0 0 17.2982652902603 0 -4.69570571428456 -0.203863524192208 -5.7711407311298 1.02159286921824 -2.40563993553055 -1.08732307925284 -0.174550829101233 -2.17702209164187 -3.02895708134908 -2.69744835545284 20.2534094101421 -8.12727821755928 11.1349568755483 0 0 0 0 0 0.987227310666269 -5.42466440425668 14.2283142886367 22.3007571778411 0 0 0 0 0 11.8971427763796 -1.52751748358643 10.0545764735442 -13.1096866542304 0 0 5.86351527256833 -0.788514366918424 -4.39263036028207 18.8610980856246 2.38666183174796 12.449816636268 -65.9152870003417 0 0 -12.7570434656991 -9.55541557988462 -0.068305539075474 0 0 0 0 0 0
5.52377930656075 0 0.00555869936943055 0 -0.486346233784264 0 0 17.36651917696 0 -3.4612951369218 1.14900637385511 -4.66997630747226 1.24910931634254 -1.17699719403529 -2.40597842811805 -0.157304033844122 -2.83933111103528 -2.98075841759765 0.200898280686939 22.425562327668 -8.63161455921501 12.7083788895463 0 0 0 0 0 -1.05604298455711 -2.46795850001331 14.0434808705045 18.823755465745 0 0 0 0 0 7.31891666244741 -1.79999695758978 8.22975814243203 -11.4756321971966 0 0 7.56496959604389 -1.01878986603276 -3.73684741566342 24.5939148006784 0.690076126488218 13.2880128416403 -72.3789818798699 0 0 -13.833118639627 -7.85672743355105 -0.810412043261 0 0 0 0 0 0
